<mxfile host="app.diagrams.net" modified="2023-06-26T17:20:52.124Z" agent="Mozilla/5.0 (Windows NT 10.0; Win64; x64) AppleWebKit/537.36 (KHTML, like Gecko) Chrome/114.0.0.0 Safari/537.36" etag="dB2r2AXwVvJqcqFI50li" version="21.3.7" type="github">
  <diagram name="Page-1" id="6W4AaZUkjcXcDQ5Ecm52">
    <mxGraphModel dx="1050" dy="587" grid="1" gridSize="10" guides="1" tooltips="1" connect="1" arrows="1" fold="1" page="1" pageScale="1" pageWidth="827" pageHeight="1169" math="0" shadow="0">
      <root>
        <mxCell id="0" />
        <mxCell id="1" parent="0" />
        <mxCell id="XcCFvybICMbkdc_DKMNe-445" value="" style="rounded=1;whiteSpace=wrap;html=1;dashed=1;" vertex="1" parent="1">
          <mxGeometry x="110" y="190" width="312.5" height="250" as="geometry" />
        </mxCell>
        <mxCell id="XcCFvybICMbkdc_DKMNe-434" style="edgeStyle=orthogonalEdgeStyle;rounded=0;orthogonalLoop=1;jettySize=auto;html=1;exitX=1;exitY=0.5;exitDx=0;exitDy=0;entryX=0;entryY=0.5;entryDx=0;entryDy=0;" edge="1" parent="1" source="XcCFvybICMbkdc_DKMNe-6" target="XcCFvybICMbkdc_DKMNe-1">
          <mxGeometry relative="1" as="geometry" />
        </mxCell>
        <mxCell id="XcCFvybICMbkdc_DKMNe-6" value="" style="rounded=0;whiteSpace=wrap;html=1;" vertex="1" parent="1">
          <mxGeometry x="180" y="250" width="190" height="130" as="geometry" />
        </mxCell>
        <mxCell id="XcCFvybICMbkdc_DKMNe-435" style="edgeStyle=orthogonalEdgeStyle;rounded=0;orthogonalLoop=1;jettySize=auto;html=1;exitX=0.5;exitY=0.5;exitDx=0;exitDy=0;exitPerimeter=0;entryX=0;entryY=0.5;entryDx=0;entryDy=0;" edge="1" parent="1" source="XcCFvybICMbkdc_DKMNe-7" target="XcCFvybICMbkdc_DKMNe-422">
          <mxGeometry relative="1" as="geometry" />
        </mxCell>
        <mxCell id="XcCFvybICMbkdc_DKMNe-7" value="Bidder" style="shape=umlActor;verticalLabelPosition=bottom;verticalAlign=top;html=1;outlineConnect=0;" vertex="1" parent="1">
          <mxGeometry x="50" y="220" width="30" height="60" as="geometry" />
        </mxCell>
        <mxCell id="XcCFvybICMbkdc_DKMNe-436" style="edgeStyle=orthogonalEdgeStyle;rounded=0;orthogonalLoop=1;jettySize=auto;html=1;exitX=0.5;exitY=0.5;exitDx=0;exitDy=0;exitPerimeter=0;entryX=0;entryY=0.5;entryDx=0;entryDy=0;" edge="1" parent="1" source="XcCFvybICMbkdc_DKMNe-10" target="XcCFvybICMbkdc_DKMNe-424">
          <mxGeometry relative="1" as="geometry" />
        </mxCell>
        <mxCell id="XcCFvybICMbkdc_DKMNe-10" value="Auctioneer" style="shape=umlActor;verticalLabelPosition=bottom;verticalAlign=top;html=1;outlineConnect=0;" vertex="1" parent="1">
          <mxGeometry x="50" y="360" width="30" height="60" as="geometry" />
        </mxCell>
        <mxCell id="XcCFvybICMbkdc_DKMNe-437" style="edgeStyle=orthogonalEdgeStyle;rounded=0;orthogonalLoop=1;jettySize=auto;html=1;exitX=0.5;exitY=0.5;exitDx=0;exitDy=0;exitPerimeter=0;entryX=0.5;entryY=0;entryDx=0;entryDy=0;" edge="1" parent="1" source="XcCFvybICMbkdc_DKMNe-11" target="XcCFvybICMbkdc_DKMNe-6">
          <mxGeometry relative="1" as="geometry" />
        </mxCell>
        <mxCell id="XcCFvybICMbkdc_DKMNe-442" style="edgeStyle=orthogonalEdgeStyle;rounded=0;orthogonalLoop=1;jettySize=auto;html=1;exitX=0.5;exitY=0.5;exitDx=0;exitDy=0;exitPerimeter=0;" edge="1" parent="1" source="XcCFvybICMbkdc_DKMNe-11">
          <mxGeometry relative="1" as="geometry">
            <mxPoint x="550" y="190" as="targetPoint" />
          </mxGeometry>
        </mxCell>
        <mxCell id="XcCFvybICMbkdc_DKMNe-11" value="Administrator" style="shape=umlActor;verticalLabelPosition=bottom;verticalAlign=top;html=1;outlineConnect=0;" vertex="1" parent="1">
          <mxGeometry x="260" y="90" width="30" height="60" as="geometry" />
        </mxCell>
        <mxCell id="XcCFvybICMbkdc_DKMNe-19" value="" style="group" vertex="1" connectable="0" parent="1">
          <mxGeometry x="460" y="180" width="300" height="250" as="geometry" />
        </mxCell>
        <mxCell id="XcCFvybICMbkdc_DKMNe-1" value="" style="rounded=1;whiteSpace=wrap;html=1;" vertex="1" parent="XcCFvybICMbkdc_DKMNe-19">
          <mxGeometry y="10" width="300" height="250" as="geometry" />
        </mxCell>
        <mxCell id="XcCFvybICMbkdc_DKMNe-3" value="Administrator Roles" style="rounded=0;whiteSpace=wrap;html=1;" vertex="1" parent="XcCFvybICMbkdc_DKMNe-19">
          <mxGeometry x="30" y="60" width="120" height="60" as="geometry" />
        </mxCell>
        <mxCell id="XcCFvybICMbkdc_DKMNe-5" value="Database" style="shape=cylinder3;whiteSpace=wrap;html=1;boundedLbl=1;backgroundOutline=1;size=15;" vertex="1" parent="XcCFvybICMbkdc_DKMNe-19">
          <mxGeometry x="190" y="82.5" width="86" height="105" as="geometry" />
        </mxCell>
        <mxCell id="XcCFvybICMbkdc_DKMNe-439" value="API" style="rounded=0;whiteSpace=wrap;html=1;" vertex="1" parent="XcCFvybICMbkdc_DKMNe-19">
          <mxGeometry x="30" y="150" width="120" height="60" as="geometry" />
        </mxCell>
        <mxCell id="XcCFvybICMbkdc_DKMNe-431" style="edgeStyle=orthogonalEdgeStyle;rounded=0;orthogonalLoop=1;jettySize=auto;html=1;exitX=1;exitY=0.25;exitDx=0;exitDy=0;entryX=0.75;entryY=0;entryDx=0;entryDy=0;" edge="1" parent="1" source="XcCFvybICMbkdc_DKMNe-422" target="XcCFvybICMbkdc_DKMNe-423">
          <mxGeometry relative="1" as="geometry" />
        </mxCell>
        <mxCell id="XcCFvybICMbkdc_DKMNe-422" value="BIDS FOR X" style="rounded=1;whiteSpace=wrap;html=1;" vertex="1" parent="1">
          <mxGeometry x="195" y="270" width="80" height="30" as="geometry" />
        </mxCell>
        <mxCell id="XcCFvybICMbkdc_DKMNe-423" value="AUCTION RESULT" style="rounded=1;whiteSpace=wrap;html=1;" vertex="1" parent="1">
          <mxGeometry x="280" y="300" width="80" height="30" as="geometry" />
        </mxCell>
        <mxCell id="XcCFvybICMbkdc_DKMNe-432" style="edgeStyle=orthogonalEdgeStyle;rounded=0;orthogonalLoop=1;jettySize=auto;html=1;exitX=1;exitY=0.75;exitDx=0;exitDy=0;entryX=0.75;entryY=1;entryDx=0;entryDy=0;" edge="1" parent="1" source="XcCFvybICMbkdc_DKMNe-424" target="XcCFvybICMbkdc_DKMNe-423">
          <mxGeometry relative="1" as="geometry" />
        </mxCell>
        <mxCell id="XcCFvybICMbkdc_DKMNe-424" value="SELLS X" style="rounded=1;whiteSpace=wrap;html=1;" vertex="1" parent="1">
          <mxGeometry x="195" y="330" width="80" height="30" as="geometry" />
        </mxCell>
        <mxCell id="XcCFvybICMbkdc_DKMNe-427" value="" style="endArrow=classic;startArrow=classic;html=1;rounded=0;exitX=0.5;exitY=0;exitDx=0;exitDy=0;" edge="1" parent="1" source="XcCFvybICMbkdc_DKMNe-424" target="XcCFvybICMbkdc_DKMNe-422">
          <mxGeometry width="50" height="50" relative="1" as="geometry">
            <mxPoint x="200" y="340" as="sourcePoint" />
            <mxPoint x="250" y="290" as="targetPoint" />
          </mxGeometry>
        </mxCell>
        <mxCell id="XcCFvybICMbkdc_DKMNe-438" value="&lt;div style=&quot;&quot;&gt;&lt;span style=&quot;background-color: initial;&quot;&gt;Webapp Simplified Interaction&amp;nbsp;&lt;/span&gt;&lt;/div&gt;" style="text;html=1;strokeColor=none;fillColor=none;align=center;verticalAlign=middle;whiteSpace=wrap;rounded=0;" vertex="1" parent="1">
          <mxGeometry x="245" y="390" width="60" height="30" as="geometry" />
        </mxCell>
        <mxCell id="XcCFvybICMbkdc_DKMNe-444" value="Backend - SCM Wagtail Python" style="text;html=1;strokeColor=none;fillColor=none;align=center;verticalAlign=middle;whiteSpace=wrap;rounded=0;" vertex="1" parent="1">
          <mxGeometry x="565" y="460" width="90" height="30" as="geometry" />
        </mxCell>
        <mxCell id="XcCFvybICMbkdc_DKMNe-446" value="Frontend - React Typescript" style="text;html=1;strokeColor=none;fillColor=none;align=center;verticalAlign=middle;whiteSpace=wrap;rounded=0;" vertex="1" parent="1">
          <mxGeometry x="209.38" y="460" width="113.75" height="30" as="geometry" />
        </mxCell>
      </root>
    </mxGraphModel>
  </diagram>
</mxfile>
